<svg width="292" height="72" viewBox="0 0 292 72" fill="none" xmlns="http://www.w3.org/2000/svg">
<path d="M9.72 37V14.284H0.612V11.8H21.6V14.284H12.492V37H9.72ZM24.2708 37V11.8H42.3068V14.248H27.0428V23.068H37.0148V25.48H27.0428V34.552H42.4508V37H24.2708ZM55.9972 37.396C54.1732 37.396 52.4692 37.072 50.8852 36.424C49.3012 35.752 47.9092 34.828 46.7092 33.652C45.5092 32.452 44.5732 31.072 43.9012 29.512C43.2532 27.928 42.9292 26.224 42.9292 24.4C42.9292 22.576 43.2532 20.884 43.9012 19.324C44.5732 17.74 45.5092 16.36 46.7092 15.184C47.9092 13.984 49.3012 13.06 50.8852 12.412C52.4692 11.74 54.1732 11.404 55.9972 11.404C57.3172 11.404 58.5772 11.572 59.7772 11.908C61.0012 12.22 62.1292 12.688 63.1612 13.312C64.2172 13.912 65.1532 14.656 65.9692 15.544L64.1332 17.488C63.1492 16.36 61.9372 15.496 60.4972 14.896C59.0572 14.272 57.5572 13.96 55.9972 13.96C54.5332 13.96 53.1772 14.224 51.9292 14.752C50.6812 15.28 49.5892 16.024 48.6532 16.984C47.7412 17.92 47.0212 19.024 46.4932 20.296C45.9892 21.544 45.7372 22.912 45.7372 24.4C45.7372 25.864 45.9892 27.232 46.4932 28.504C47.0212 29.776 47.7532 30.892 48.6892 31.852C49.6252 32.788 50.7172 33.52 51.9652 34.048C53.2372 34.576 54.6052 34.84 56.0692 34.84C57.6292 34.84 59.1172 34.54 60.5332 33.94C61.9492 33.316 63.1372 32.464 64.0972 31.384L65.8972 33.256C65.0572 34.12 64.1092 34.864 63.0532 35.488C62.0212 36.112 60.9052 36.592 59.7052 36.928C58.5052 37.24 57.2692 37.396 55.9972 37.396ZM69.3776 37V11.8H72.1496V23.068H86.8016V11.8H89.5736V37H86.8016V25.552H72.1496V37H69.3776ZM93.888 37V18.964H96.552V37H93.888ZM95.22 15.508C94.74 15.508 94.32 15.328 93.96 14.968C93.6 14.608 93.42 14.188 93.42 13.708C93.42 13.204 93.6 12.784 93.96 12.448C94.32 12.088 94.74 11.908 95.22 11.908C95.724 11.908 96.144 12.088 96.48 12.448C96.84 12.784 97.02 13.204 97.02 13.708C97.02 14.188 96.84 14.608 96.48 14.968C96.144 15.328 95.724 15.508 95.22 15.508ZM100.375 37V11.8L103.039 11.188V20.872C104.575 19.408 106.507 18.676 108.835 18.676C110.539 18.676 112.075 19.096 113.443 19.936C114.811 20.752 115.891 21.856 116.683 23.248C117.499 24.64 117.907 26.212 117.907 27.964C117.907 29.716 117.499 31.3 116.683 32.716C115.891 34.108 114.811 35.224 113.443 36.064C112.075 36.88 110.527 37.288 108.799 37.288C107.743 37.288 106.711 37.108 105.703 36.748C104.719 36.388 103.819 35.872 103.003 35.2V37H100.375ZM108.583 34.948C109.855 34.948 110.995 34.648 112.003 34.048C113.011 33.424 113.803 32.596 114.379 31.564C114.979 30.508 115.279 29.32 115.279 28C115.279 26.68 114.979 25.492 114.379 24.436C113.803 23.38 113.011 22.552 112.003 21.952C110.995 21.328 109.855 21.016 108.583 21.016C107.455 21.016 106.399 21.244 105.415 21.7C104.455 22.132 103.663 22.744 103.039 23.536V32.464C103.663 33.232 104.467 33.844 105.451 34.3C106.435 34.732 107.479 34.948 108.583 34.948ZM120.889 37V18.964H123.553V37H120.889ZM122.221 15.508C121.741 15.508 121.321 15.328 120.961 14.968C120.601 14.608 120.421 14.188 120.421 13.708C120.421 13.204 120.601 12.784 120.961 12.448C121.321 12.088 121.741 11.908 122.221 11.908C122.725 11.908 123.145 12.088 123.481 12.448C123.841 12.784 124.021 13.204 124.021 13.708C124.021 14.188 123.841 14.608 123.481 14.968C123.145 15.328 122.725 15.508 122.221 15.508ZM134.468 37.36C132.908 37.36 131.708 36.988 130.868 36.244C130.028 35.5 129.608 34.42 129.608 33.004V21.232H125.72V18.964H129.608V14.392L132.236 13.708V18.964H137.672V21.232H132.236V32.32C132.236 33.28 132.452 33.976 132.884 34.408C133.316 34.816 134.024 35.02 135.008 35.02C135.512 35.02 135.956 34.984 136.34 34.912C136.748 34.84 137.18 34.72 137.636 34.552V36.892C137.18 37.06 136.664 37.18 136.088 37.252C135.536 37.324 134.996 37.36 134.468 37.36Z" fill="#001F3F"/>
<path d="M65.976 57L64.92 54.376L71.768 46.664C72.1307 46.28 72.504 45.8427 72.888 45.352C73.2933 44.84 73.6773 44.3173 74.04 43.784C74.4027 43.2507 74.6907 42.728 74.904 42.216C75.1387 41.6827 75.256 41.1813 75.256 40.712C75.256 40.0293 75.1173 39.4533 74.84 38.984C74.584 38.4933 74.2 38.12 73.688 37.864C73.1973 37.608 72.6 37.48 71.896 37.48C71.2773 37.48 70.6693 37.6613 70.072 38.024C69.4747 38.3867 68.9307 38.8987 68.44 39.56C67.9493 40.2213 67.5653 40.9893 67.288 41.864L64.632 40.2C64.9947 38.9627 65.5387 37.9067 66.264 37.032C67.0107 36.136 67.896 35.4533 68.92 34.984C69.9653 34.5147 71.096 34.28 72.312 34.28C73.5707 34.28 74.6907 34.5467 75.672 35.08C76.6533 35.592 77.4213 36.3173 77.976 37.256C78.5307 38.1733 78.808 39.24 78.808 40.456C78.808 41.0747 78.7227 41.7147 78.552 42.376C78.3813 43.016 78.104 43.688 77.72 44.392C77.3573 45.096 76.888 45.8427 76.312 46.632C75.736 47.4 75.0427 48.2213 74.232 49.096L69.144 54.632L68.504 53.672H79.512V57H65.976ZM88.3073 57.32C86.6006 57.32 85.1286 56.8507 83.8913 55.912C82.6753 54.9733 81.7366 53.6507 81.0753 51.944C80.4139 50.216 80.0833 48.168 80.0833 45.8C80.0833 43.432 80.4139 41.3947 81.0753 39.688C81.7366 37.96 82.6753 36.6267 83.8913 35.688C85.1286 34.7493 86.6006 34.28 88.3073 34.28C90.0139 34.28 91.4859 34.7493 92.7233 35.688C93.9606 36.6267 94.9099 37.96 95.5713 39.688C96.2326 41.3947 96.5633 43.432 96.5633 45.8C96.5633 48.168 96.2326 50.216 95.5713 51.944C94.9099 53.6507 93.9606 54.9733 92.7233 55.912C91.4859 56.8507 90.0139 57.32 88.3073 57.32ZM88.3073 54.184C89.8646 54.184 91.0699 53.4587 91.9233 52.008C92.7766 50.536 93.2033 48.4667 93.2033 45.8C93.2033 43.1333 92.7766 41.0747 91.9233 39.624C91.0699 38.152 89.8646 37.416 88.3073 37.416C86.7499 37.416 85.5446 38.152 84.6913 39.624C83.8379 41.0747 83.4113 43.1333 83.4113 45.8C83.4113 48.4667 83.8379 50.536 84.6913 52.008C85.5446 53.4587 86.7499 54.184 88.3073 54.184Z" fill="#F9AB14"/>
<line x1="67.1973" y1="17.6728" x2="55.7398" y2="30.2715" stroke="#001F3F" stroke-width="2"/>
<line x1="52.7145" y1="16.3003" x2="67.5553" y2="31.4547" stroke="#001F3F" stroke-width="2"/>
</svg>
